<svg width="0" height="0" class="hidden" xmlns="http://www.w3.org/2000/svg">
  <symbol id="down_arrow" viewBox="0 0 476.213 476.213">
    <polygon points="347.5,324.393 253.353,418.541 253.353,0 223.353,0 223.353,419.033 128.713,324.393 107.5,345.607 
	238.107,476.213 368.713,345.606 "></polygon>
  </symbol>
  <symbol   viewBox="0 0 24 24" id="gallery">
    <path d="M17.5 21.25H6.5C5.50544 21.25 4.55161 20.8549 3.84835 20.1517C3.14509 19.4484 2.75 18.4946 2.75 17.5V6.5C2.75 5.50544 3.14509 4.55161 3.84835 3.84835C4.55161 3.14509 5.50544 2.75 6.5 2.75H17.5C18.4946 2.75 19.4484 3.14509 20.1517 3.84835C20.8549 4.55161 21.25 5.50544 21.25 6.5V17.5C21.25 18.4946 20.8549 19.4484 20.1517 20.1517C19.4484 20.8549 18.4946 21.25 17.5 21.25ZM6.5 4.25C5.90326 4.25 5.33097 4.48705 4.90901 4.90901C4.48705 5.33097 4.25 5.90326 4.25 6.5V17.5C4.25 18.0967 4.48705 18.669 4.90901 19.091C5.33097 19.5129 5.90326 19.75 6.5 19.75H17.5C18.0967 19.75 18.669 19.5129 19.091 19.091C19.5129 18.669 19.75 18.0967 19.75 17.5V6.5C19.75 5.90326 19.5129 5.33097 19.091 4.90901C18.669 4.48705 18.0967 4.25 17.5 4.25H6.5Z" ></path>
    <path d="M3.5 17.06C3.38951 17.0599 3.28037 17.0356 3.1802 16.989C3.08003 16.9424 2.99124 16.8745 2.92 16.79C2.80995 16.6405 2.75926 16.4555 2.77773 16.2708C2.79621 16.0861 2.88253 15.9148 3.02 15.79L7.72 11.89C8.09744 11.5752 8.53322 11.338 9.00242 11.1917C9.47162 11.0455 9.96505 10.9932 10.4545 11.0378C10.9439 11.0824 11.4198 11.223 11.8548 11.4515C12.2899 11.6801 12.6756 11.9922 12.99 12.37L14.11 13.71C14.3023 13.9403 14.5387 14.1298 14.8053 14.2673C15.0718 14.4049 15.3633 14.4878 15.6623 14.5111C15.9614 14.5344 16.2622 14.4976 16.5468 14.403C16.8315 14.3083 17.0944 14.1577 17.32 13.96L20 11.56C20.0742 11.4943 20.1606 11.4439 20.2543 11.4117C20.3479 11.3794 20.4471 11.3659 20.546 11.3719C20.6449 11.378 20.7416 11.4034 20.8306 11.4468C20.9197 11.4903 20.9993 11.5508 21.065 11.625C21.1307 11.6992 21.1811 11.7856 21.2133 11.8793C21.2456 11.973 21.2591 12.0721 21.2531 12.171C21.247 12.2699 21.2216 12.3666 21.1782 12.4556C21.1347 12.5447 21.0742 12.6243 21 12.69L18.31 15C17.9378 15.3267 17.5045 15.5763 17.0351 15.7342C16.5657 15.8921 16.0696 15.9553 15.5756 15.9199C15.0816 15.8846 14.5995 15.7514 14.1574 15.5283C13.7153 15.3051 13.3219 14.9964 13 14.62L11.88 13.28C11.6891 13.0487 11.454 12.8578 11.1885 12.7183C10.923 12.5788 10.6324 12.4935 10.3337 12.4675C10.0349 12.4414 9.73393 12.4751 9.4483 12.5665C9.16267 12.6579 8.8981 12.8053 8.67 13L4 16.89C3.86088 17.008 3.68218 17.0687 3.5 17.06Z" ></path>
  </symbol>
  <symbol  id="home" viewBox="0 0 64 64">
    <g>
      <path d="M40,64h12c1.104,0,2-0.896,2-2V34h8c0.809,0,1.538-0.487,1.848-1.235c0.31-0.747,0.139-1.607-0.434-2.179l-30-30
		c-0.781-0.781-2.047-0.781-2.828,0l-30,30c-0.572,0.572-0.743,1.432-0.434,2.179C0.462,33.513,1.191,34,2,34h8v28
		c0,1.104,0.896,2,2,2h12c1.104,0,2-0.896,2-2V48h12v14C38,63.104,38.896,64,40,64z M24,44c-1.104,0-2,0.896-2,2v14h-8V32
		c0-1.104-0.896-2-2-2H6.828L32,4.829L57.172,30H52c-1.104,0-2,0.896-2,2v28h-8V46c0-1.104-0.896-2-2-2H24z"></path>
    </g>
  </symbol>
  <symbol  id="left_arrow" viewBox="0 0 400.004 400.004">
    <g>
      <path d="M382.688,182.686H59.116l77.209-77.214c6.764-6.76,6.764-17.726,0-24.485c-6.764-6.764-17.73-6.764-24.484,0L5.073,187.757
		c-6.764,6.76-6.764,17.727,0,24.485l106.768,106.775c3.381,3.383,7.812,5.072,12.242,5.072c4.43,0,8.861-1.689,12.242-5.072
		c6.764-6.76,6.764-17.726,0-24.484l-77.209-77.218h323.572c9.562,0,17.316-7.753,17.316-17.315
		C400.004,190.438,392.251,182.686,382.688,182.686z"></path>
    </g>
  </symbol>
   <symbol viewBox="0 0 20 20" id="linkedin">
    <path d="M10 .4C4.698.4.4 4.698.4 10s4.298 9.6 9.6 9.6 9.6-4.298 9.6-9.6S15.302.4 10 .4zM7.65 13.979H5.706V7.723H7.65v6.256zm-.984-7.024c-.614 0-1.011-.435-1.011-.973 0-.549.409-.971 1.036-.971s1.011.422 1.023.971c0 .538-.396.973-1.048.973zm8.084 7.024h-1.944v-3.467c0-.807-.282-1.355-.985-1.355-.537 0-.856.371-.997.728-.052.127-.065.307-.065.486v3.607H8.814v-4.26c0-.781-.025-1.434-.051-1.996h1.689l.089.869h.039c.256-.408.883-1.01 1.932-1.01 1.279 0 2.238.857 2.238 2.699v3.699z"></path>
  </symbol>
  <symbol viewBox="0 0 32 32" id="telegram">
    <path d="M16 0.5c-8.563 0-15.5 6.938-15.5 15.5s6.938 15.5 15.5 15.5c8.563 0 15.5-6.938 15.5-15.5s-6.938-15.5-15.5-15.5zM23.613 11.119l-2.544 11.988c-0.188 0.85-0.694 1.056-1.4 0.656l-3.875-2.856-1.869 1.8c-0.206 0.206-0.381 0.381-0.781 0.381l0.275-3.944 7.181-6.488c0.313-0.275-0.069-0.431-0.482-0.156l-8.875 5.587-3.825-1.194c-0.831-0.262-0.85-0.831 0.175-1.231l14.944-5.763c0.694-0.25 1.3 0.169 1.075 1.219z"></path>
  </symbol>

  <symbol  viewBox="0 0 24 24" id="facebook">
    <path d="M24 12.073c0-6.627-5.373-12-12-12s-12 5.373-12 12c0 5.99 4.388 10.954 10.125 11.854v-8.385H7.078v-3.47h3.047V9.43c0-3.007 1.792-4.669 4.533-4.669 1.312 0 2.686.235 2.686.235v2.953H15.83c-1.491 0-1.956.925-1.956 1.874v2.25h3.328l-.532 3.47h-2.796v8.385C19.612 23.027 24 18.062 24 12.073z"></path>
  </symbol>
  <symbol  id="twitter"  viewBox="0 0 260 260">
    <path d="M130,2C59.31,2,2,59.31,2,130s57.31,128,128,128s128-57.31,128-128S200.69,2,130,2z M194.08,97.09l0.11,4.28
	c0,50.62-33.26,94.13-94.12,94.13c-18.69,0-36.07-5.48-50.71-14.89c2.59,0.3,5.22,0.46,7.89,0.46c15.5,0,29.77-5.27,41.08-14.14
	c-14.47-0.26-26.43-9.08-30.64-22.23c5.11,0.82,11.26,0.12,14.69-1.29c-7.56-1.53-14.19-5.63-18.94-11.36
	c-4.74-5.72-7.59-13.07-7.59-21.08c4.46,2.48,9.56,3.55,14.98,3.74c-8.87-5.93-14.71-16.06-14.71-27.54
	c0-6.06,1.62-11.75,4.47-16.62c16.32,20.01,40.7,33.18,68.19,34.56c-0.57-2.42-0.86-4.95-0.86-7.54c0-18.26,14.82-33.07,33.09-33.07
	c9.52,0,17.54,3.99,23.11,9.42c6.25-0.21,14.88-3.21,22.05-7c-2.47,7.71-7.71,14.2-14.54,18.29c6.69-0.26,12.43-1.65,18.36-4.28
	C205.57,87.56,200.58,92.46,194.08,97.09z"></path>
  </symbol>
</svg>


